<?xml version="1.0" encoding="UTF-8"?>
<svg id="Group_2" data-name="Group 2" xmlns="http://www.w3.org/2000/svg" viewBox="0 0 211.73 282.79">
  <defs>
    <style>
      .cls-1, .cls-2 {
        fill: #333;
      }

      .cls-1, .cls-3 {
        font-family: AgencyFB-Reg, 'Agency FB';
        font-size: 100px;
      }

      .cls-4, .cls-3 {
        fill: #6e963f;
      }
    </style>
  </defs>
  <g id="spiral_black" data-name="spiral black">
    <polygon class="cls-2" points="103.95 239.23 72.39 227.49 67.68 160.96 63.61 160.05 68.5 230.29 104.44 243.69 103.95 239.23"/>
    <polygon class="cls-2" points="145.98 222.19 113.62 210.31 109.69 144.27 105.63 143.35 109.8 213.13 146.45 226.61 145.98 222.19"/>
    <polygon class="cls-2" points="67.21 153.64 65.78 134.05 61.7 133.15 63.08 152.77 67.21 153.64"/>
    <polygon class="cls-2" points="109.27 136.99 108.05 116.12 103.98 115.21 105.23 136.08 109.27 136.99"/>
    <polygon class="cls-2" points="183.41 126.11 59.42 100.59 61.21 125.86 65.29 126.77 63.78 105.56 179.74 129.43 191.19 238.74 153.26 224.85 153.76 229.3 195.88 244.83 183.41 126.11"/>
    <polygon class="cls-2" points="33.63 148.37 32.84 152.29 97.38 165.08 109.55 276.76 31.07 247.36 22.88 123 139.18 149.05 151.23 256.9 111.29 241.98 111.77 246.43 155.95 262.92 142.84 145.8 18.55 117.91 27.25 250.22 114.22 282.79 101.02 161.73 33.63 148.37"/>
  </g>
  <g id="spiral_black-2" data-name="spiral black">
    <polygon class="cls-4" points="101.62 238.23 70.06 226.49 65.35 159.96 61.28 159.05 66.17 229.29 102.11 242.69 101.62 238.23"/>
    <polygon class="cls-4" points="143.64 221.19 111.29 209.31 107.36 143.27 103.3 142.35 107.47 212.13 144.12 225.61 143.64 221.19"/>
    <polygon class="cls-4" points="64.88 152.64 63.45 133.05 59.36 132.15 60.75 151.77 64.88 152.64"/>
    <polygon class="cls-4" points="106.94 135.99 105.72 115.12 101.65 114.21 102.89 135.08 106.94 135.99"/>
    <polygon class="cls-4" points="181.07 125.11 57.09 99.59 58.88 124.86 62.96 125.77 61.45 104.56 177.4 128.43 188.86 237.74 150.92 223.85 151.43 228.3 193.55 243.83 181.07 125.11"/>
    <polygon class="cls-4" points="31.29 147.37 30.51 151.29 95.04 164.08 107.22 275.76 28.74 246.36 20.55 122 136.85 148.05 148.9 255.9 108.96 240.98 109.44 245.43 153.61 261.92 140.5 144.8 16.22 116.91 24.92 249.22 111.88 281.79 98.69 160.73 31.29 147.37"/>
  </g>
  <g id="SPIRO">
    <text class="cls-1" transform="translate(10.31 88.95) rotate(11.41) scale(1.07 .96) skewX(14.17)"><tspan x="0" y="0">SPIRO</tspan></text>
    <text class="cls-3" transform="translate(6.64 87.95) rotate(11.41) scale(1.07 .96) skewX(14.17)"><tspan x="0" y="0">SPIRO</tspan></text>
  </g>
</svg>